<svg id="Layer_2" data-name="Layer 2" xmlns="http://www.w3.org/2000/svg" width="415" height="512" viewBox="0 0 415 512"><path d="M.1207-.31c40.5712,31.8931,79.6861,65.4373,116.84,101.0055A1427.8939,1427.8939,0,0,1,222.292,213.1817l6.2,7.3715,6.0542,7.492c4.0027,5.0213,8.1424,9.9324,12.1214,14.9726,3.9581,5.0564,7.9726,10.07,11.8853,15.1618,3.88,5.1166,7.8181,10.1908,11.6524,15.3425,15.3253,20.6139,30.28,41.5165,44.4873,62.9345q5.3313,8.0288,10.5787,16.1143l5.2545,8.0828,5.1454,8.1529c6.8981,10.85,13.4856,21.8922,20.1088,32.9189q4.91,8.3026,9.747,16.654c3.1669,5.5987,6.4044,11.1617,9.4874,16.81,6.342,11.2027,12.4076,22.5606,18.4321,33.9478l.01.0187a1.57,1.57,0,0,0,2.8068-1.4036c-2.754-5.8381-5.4256-11.7208-8.2623-17.5226l-4.2085-8.7284-4.3151-8.6769c-2.8729-5.7881-5.9021-11.4947-8.8628-17.24q-4.5174-8.5763-9.1346-17.1041c-3.1279-5.6562-6.2136-11.34-9.4655-16.9275-3.2211-5.6057-6.4243-11.2238-9.7508-16.7692l-4.9453-8.3461-5.057-8.2792c-3.3277-5.5482-6.8382-10.9812-10.3149-16.4364-13.9775-21.7724-28.5154-43.207-43.9518-63.9882-3.8346-5.2128-7.773-10.3484-11.6549-15.5265-3.9141-5.1536-7.9307-10.2287-11.8915-15.3471-1.9654-2.5713-4.0376-5.0576-6.0587-7.5847l-6.1217-7.5345-6.144-7.516-6.29-7.3945-6.29-7.394c-2.0935-2.4673-4.1834-4.9376-6.3476-7.3436l-12.8693-14.5355c-8.7155-9.5672-17.4909-19.0821-26.5491-28.3249l-6.7454-6.9767c-2.2528-2.3211-4.5714-4.5782-6.8537-6.87l-6.8722-6.8506-3.4358-3.4249-3.491-3.369L136.318,108.37,122.0286,95.248A1088.28,1088.28,0,0,0,.1207-.31Z" fill="#231f20"/><polygon points="411.778 435.543 390.41 459.615 358.249 460.945 415.121 511.69 411.778 435.543" fill="#231f20"/></svg>