<svg id="Layer_1" data-name="Layer 1" xmlns="http://www.w3.org/2000/svg" width="415" height="512" viewBox="0 0 415 512"><path d="M415,0c-40.5712,31.8932-79.6861,65.4373-116.84,101.0056A1427.8925,1427.8925,0,0,0,192.8287,213.492l-6.2,7.3715-6.0542,7.492c-4.0027,5.0214-8.1424,9.9324-12.1215,14.9727-3.958,5.0564-7.9726,10.07-11.8852,15.1618-3.88,5.1165-7.8181,10.1908-11.6524,15.3424-15.3253,20.614-30.28,41.5165-44.4874,62.9345q-5.3313,8.0287-10.5787,16.1143l-5.2544,8.0828-5.1454,8.1529c-6.8981,10.85-13.4856,21.8923-20.1088,32.9189q-4.9106,8.3028-9.747,16.6541c-3.1669,5.5986-6.4044,11.1616-9.4874,16.8095-6.342,11.2028-12.4076,22.5607-18.4321,33.9478l-.01.0187a1.57,1.57,0,0,1-2.8069-1.4036c2.7541-5.8381,5.4256-11.7208,8.2624-17.5226l4.2085-8.7283,4.3151-8.6769c2.8728-5.7882,5.9021-11.4947,8.8628-17.24q4.5174-8.5762,9.1346-17.104c3.1279-5.6563,6.2136-11.34,9.4655-16.9275,3.2211-5.6057,6.4243-11.2238,9.7508-16.7693l4.9453-8.346,5.0569-8.2793c3.3278-5.5482,6.8383-10.9812,10.315-16.4364,13.9775-21.7723,28.5154-43.207,43.9518-63.9882,3.8345-5.2127,7.773-10.3483,11.6549-15.5265,3.9141-5.1536,7.9307-10.2286,11.8915-15.347,1.9654-2.5713,4.0376-5.0576,6.0587-7.5847l6.1217-7.5346,6.144-7.5159,6.29-7.3945,6.29-7.394c2.0935-2.4673,4.1833-4.9377,6.3476-7.3437l12.8693-14.5355c8.7155-9.5672,17.4909-19.0821,26.5491-28.3248l6.7454-6.9768c2.2528-2.3211,4.5714-4.5782,6.8537-6.87l6.8722-6.8506L261.25,125.42l3.491-3.3689,14.0621-13.37,14.2894-13.1223A1088.2916,1088.2916,0,0,1,415,0Z" fill="#231f20"/><polygon points="3.342 435.854 24.711 459.925 56.871 461.255 0 512 3.342 435.854" fill="#231f20"/></svg>