<svg id="Layer_3" data-name="Layer 3" xmlns="http://www.w3.org/2000/svg" width="415" height="512" viewBox="0 0 415 512"><path d="M415.1207,511.69c-40.5712-31.8932-79.6861-65.4374-116.84-101.0056A1427.8913,1427.8913,0,0,1,192.9494,298.1977l-6.2-7.3716-6.0542-7.492c-4.0027-5.0213-8.1424-9.9324-12.1215-14.9726-3.9581-5.0564-7.9726-10.07-11.8852-15.1618-3.88-5.1166-7.8181-10.1908-11.6525-15.3424-15.3252-20.614-30.28-41.5166-44.4873-62.9346Q95.2171,166.894,89.97,158.8084l-5.2544-8.0828L79.57,142.5727c-6.8981-10.85-13.4856-21.8922-20.1088-32.9189Q54.5505,101.3512,49.7141,93c-3.1669-5.5987-6.4044-11.1617-9.4874-16.81C33.8847,64.9875,27.8191,53.63,21.7946,42.2425l-.01-.0188a1.57,1.57,0,0,0-2.8068,1.4036C21.7319,49.4654,24.4034,55.3481,27.24,61.15l4.2084,8.7284,4.3152,8.6769c2.8728,5.7881,5.9021,11.4947,8.8628,17.24q4.5174,8.5763,9.1346,17.1041c3.1278,5.6562,6.2136,11.34,9.4655,16.9275,3.2211,5.6057,6.4243,11.2238,9.7508,16.7692l4.9453,8.3461,5.0569,8.2793c3.3278,5.5481,6.8382,10.9812,10.315,16.4364,13.9775,21.7723,28.5154,43.207,43.9518,63.9881,3.8345,5.2128,7.773,10.3484,11.6549,15.5265,3.9141,5.1537,7.9307,10.2287,11.8915,15.3471,1.9654,2.5713,4.0376,5.0576,6.0587,7.5847l6.1217,7.5345,6.144,7.516,6.29,7.3945,6.29,7.394c2.0935,2.4673,4.1833,4.9376,6.3476,7.3436l12.8693,14.5355c8.7155,9.5673,17.4909,19.0821,26.5491,28.3249l6.7454,6.9767c2.2528,2.3211,4.5714,4.5783,6.8537,6.87l6.8721,6.8506L261.37,386.27l3.491,3.369,14.0621,13.37,14.2894,13.1222A1088.2834,1088.2834,0,0,0,415.1207,511.69Z" fill="#231f20"/><polygon points="3.463 75.836 24.832 51.765 56.992 50.435 0.121 -0.31 3.463 75.836" fill="#231f20"/></svg>