<svg version="1.1" id="Layer_1" text-rendering="geometricPrecision" shape-rendering="geometricPrecision" image-rendering="optimizeQuality" xmlns="http://www.w3.org/2000/svg" x="0px" y="0px" viewBox="0 0 415 512" style="enable-background:new 0 0 415 512;" xml:space="preserve"><metadata/><path d="M308.1,272.8c29.7,36,70.9,93.1,101.8,124c4.6,7.7,6.1,16.4,4.5,24.4c-1.6,8.3-6.3,15.9-13.9,21.1l-2.6,1.6l-135,68.2	l-11.7-23.3c12.4-6.3,93.4-46,123.5-61.8C261.3,418.7,172,376.1,109,308C39.4,232.7,2.1,126.4,0,0.6l26-0.4	C28,119.5,63,219.8,128.2,290.3c59.3,64.1,144,103.8,252.1,111.1l-92.3-112L308.1,272.8z"/></svg>