<svg id="Layer_1" data-name="Layer 1" xmlns="http://www.w3.org/2000/svg" width="512" height="512" viewBox="0 0 512 512"><path d="M0,0C50.9866,102.9643,146.37,258.4815,316.6753,390.846A1095.52,1095.52,0,0,0,512,512" fill="#fff"/><path d="M0,0,10.34,19.7531,20.9977,39.33c3.63,6.482,7.3554,12.91,11.0273,19.3663,1.8136,3.241,3.736,6.4192,5.6539,9.6l5.7385,9.5487,2.8688,4.7737c.9453,1.5978,1.8964,3.1919,2.898,4.7555l5.9231,9.4331c3.9567,6.2832,7.84,12.6121,12.0084,18.7584,4.1119,6.1819,8.18,12.392,12.3265,18.5488l12.7789,18.2379c17.3542,24.0808,35.1543,47.8632,54.28,70.5666l7.1031,8.5687c1.1947,1.4188,2.343,2.8772,3.5759,4.2633l3.6817,4.1731,14.7257,16.6916,3.6812,4.1728,3.8062,4.0589,7.6253,8.106,7.6248,8.1058,3.8123,4.0529,1.9095,2.023,1.9722,1.9623L221.7707,304.82l7.8573,7.8805,8.1113,7.6179,16.2452,15.2144c1.3611,1.26,2.691,2.5543,4.0779,3.7856l4.193,3.6579,8.3861,7.3161c5.6,4.8671,11.1624,9.7786,16.7925,14.61l17.2934,14.0149,8.647,7.0081,4.3236,3.5042,4.4087,3.3963c5.8527,4.5624,11.8143,8.9809,17.7294,13.4627,23.8169,17.7145,48.3016,34.5534,73.4958,50.28q18.8989,11.7867,38.1841,22.9556,19.3057,11.1259,39.06,21.4674l-.2892.566q-19.9605-9.9524-39.5141-20.7132-19.5543-10.7469-38.6221-22.3634c-25.4344-15.4538-50.1832-32.0377-74.2856-49.5179-6.0031-4.4012-11.9762-8.8442-17.872-13.3892l-4.4364-3.39-4.3514-3.4978-8.7031-6.9959-17.4069-13.993c-5.6682-4.8249-11.2695-9.73-16.9077-14.5919l-8.4445-7.3082-4.2223-3.6543c-1.3966-1.23-2.7363-2.5235-4.1072-3.7821L235.05,323.1582l-8.1711-7.6136-7.9173-7.877-15.7976-15.7921-1.9714-1.9772-1.9085-2.0379-3.81-4.0825-7.62-8.165-7.6195-8.1647-3.803-4.0882-3.6776-4.2019-14.7094-16.8066-3.677-4.2016c-1.2314-1.3956-2.378-2.8634-3.5711-4.2916l-7.0925-8.625c-19.089-22.8557-36.9256-46.7356-53.9527-71.1462L77.16,135.6518c-4.0822-6.2213-8.0857-12.4944-12.1316-18.738-4.1022-6.2081-7.9184-12.5971-11.8069-18.9392l-5.82-9.52c-1.9647-3.1584-3.7551-6.4216-5.6255-9.6362C26.8466,53.0845,12.7876,26.8444,0,0Z" fill="#231f20"/><polygon points="473.63 509.508 485.997 498.985 487.009 482.779 512 512 473.63 509.508" fill="#231f20"/></svg>