<svg xmlns="http://www.w3.org/2000/svg" id="entrance" width="16" height="16" viewBox="0 0 20 20"><g><path d="M0,0 H20 V20 H0 Z" fill="none"/><path d="M19.5,10c0,5.247-4.253,9.5-9.5,9.5S.5,15.247,.5,10,4.753,.5,10,.5s9.5,4.253,9.5,9.5Z" fill="#9a0000" stroke="rgba(255, 255, 255, 0.8)" stroke-linejoin="round" stroke-miterlimit="4px" stroke-width="1.2"/><path d="M9.2432 11.7112a0.4 0.4 0 0 0 0.5656 0.5656l2.1336-2.1416a0.2 0.2 0 0 0 0-0.2832L9.8088 7.7112a0.4 0.4 0 0 0-0.5656 0.5656L10.559999999999999 9.6H5.2a0.4 0.4 0 0 0 0 0.8h5.36zM13.6 4.800000000000001H8.4a0.4 0.4 0 0 0 0 0.8h4.800000000000001a0.4 0.4 0 0 1 0.4 0.4v8a0.4 0.4 0 0 1-0.4 0.4H8.200000000000001a0.4 0.4 0 0 0 0 0.8H13.6a0.8 0.8 0 0 0 0.8-0.8V5.6a0.8 0.8 0 0 0-0.8-0.8z" fill="rgba(255, 255, 255, 0.8)"/></g></svg>